{"title":"Teenage Mutant Ninja Turtles Out of the Shadows (2016)Hindi HDTS","uid":14936868,"size":783517325,"categoryP":"video","categoryS":"movies","magnet":"?xt=urn:btih:34b9db112aa6a436a35266359742c98a0cc37bdc&amp;dn=Teenage+Mutant+Ninja+Turtles+Out+of+the+Shadows+%282016%29Hindi+HDTS&amp;tr=udp%3A%2F%2Ftracker.leechers-paradise.org%3A6969&amp;tr=udp%3A%2F%2Fzer0day.ch%3A1337&amp;tr=udp%3A%2F%2Fopen.demonii.com%3A1337&amp;tr=udp%3A%2F%2Ftracker.coppersurfer.tk%3A6969&amp;tr=udp%3A%2F%2Fexodus.desync.com%3A6969","seeders":6,"leechers":6,"uploader":"ethamdet","files":1,"time":1466003873,"description":"[size=5]Teenage Mutant Ninja Turtles Out of the Shadows (2016)Hindi HDTS x264 Hindi Audio Only AAC Ethamadet.mkv[/size]\r\n[url=http://extraimago.com/image/apIA][img]http://extraimago.com/images/2016/06/15/Teenage-Mutant-Ninja-Turtles-Out-of-the-Shadows-Full-Movie-Download.jpg[/img][/url]\r\n[url=http://extraimago.com/image/apIW][img]http://extraimago.com/images/2016/06/15/images.jpg[/img][/url]\r\n\r\n\r\n[size=4]Thanks To VR56 [/size]\r\n\r\n\r\n\r\nGeneral \r\nUnique ID : 233592018308079756304641244118785997260 (0xAFBC2FB03D1777D69A2ED79170CC39CC) \r\nComplete name : E:Teenage Mutant Ninja Turtles Out of the Shadows (2016)Hindi HDTS x264 Hindi Audio Only AAC Ethamadet.mkv \r\nFormat : Matroska \r\nFormat version : Version 4 / Version 2 \r\nFile size : 747 MiB \r\nDuration : 1h 44mn \r\nOverall bit rate : 1 000 Kbps \r\nMovie name : \r\nEncoded date : UTC 2016-06-15 00:56:37 \r\nWriting application : mkvmerge v9.2.0 ('Photograph') 32bit \r\nWriting library : libebml v1.3.3 + libmatroska v1.4.4 \r\n\r\nVideo \r\nID : 1 \r\nFormat : AVC \r\nFormat/Info : Advanced Video Codec \r\nFormat profile :    \r\nFormat settings, CABAC : Yes \r\nFormat settings, ReFrames : 5 frames \r\nCodec ID : V_MPEG4/ISO/AVC \r\nDuration : 1h 44mn \r\nBit rate : 934 Kbps \r\nWidth : 720 pixels \r\nHeight : 336 pixels \r\nDisplay aspect ratio : 2.143 \r\nFrame rate mode : Constant \r\nFrame rate : 29.970 (30000/1001) fps \r\nColor space : YUV \r\nChroma subsampling : 4:2:0 \r\nBit depth : 8 bits \r\nScan type : Progressive \r\nBits/(Pixel*Frame) : 0.129 \r\nStream size : 698 MiB (93%) \r\nTitle : EtHamad \r\nWriting library : x264 core 148 r2692 64f4e24 \r\nEncoding settings : cabac=1 / ref=5 / deblock=1:-1:-1 / analyse=0x3:0x133 / me=umh / subme=6 / psy=1 / psy_rd=1.00:0.00 / mixed_ref=1 / me_range=16 / chroma_me=1 / trellis=2 / 8x8dct=1 / cqm=0 / deadzone=21,11 / fast_pskip=1 / chroma_qp_offset=-2 / threads=10 / lookahead_threads=1 / sliced_threads=0 / nr=0 / decimate=1 / interlaced=0 / bluray_compat=0 / constrained_intra=0 / bframes=3 / b_pyramid=2 / b_adapt=2 / b_bias=0 / direct=3 / weightb=1 / open_gop=0 / weightp=2 / keyint=300 / keyint_min=29 / scenecut=40 / intra_refresh=0 / rc_lookahead=40 / rc=2pass / mbtree=1 / bitrate=934 / ratetol=1.0 / qcomp=0.60 / qpmin=10 / qpmax=51 / qpstep=4 / cplxblur=20.0 / qblur=0.5 / ip_ratio=1.40 / aq=1:1.00 \r\nDefault : Yes \r\nForced : No \r\n\r\nAudio \r\nID : 2 \r\nFormat : AAC \r\nFormat/Info : Advanced Audio Codec \r\nFormat profile : LC \r\nCodec ID : A_AAC \r\nDuration : 1h 44mn \r\nBit rate : 64.0 Kbps \r\nChannel(s) : 2 channels \r\nChannel positions : Front: L R \r\nSampling rate : 44.1 KHz \r\nFrame rate : 43.066 fps (1024 spf) \r\nCompression mode : Lossy \r\nDelay relative to video : 10ms \r\nStream size : 47.8 MiB (6%) \r\nLanguage : Hindi \r\nDefault : Yes \r\nForced : No \r\n\r\n\r\n\r\nScreens\r\n\r\n[url=http://extraimago.com/image/apdN][img]http://extraimago.com/images/2016/06/15/vlcsnap-2016-06-14-18h00m11s863.th.png[/img][/url] [url=http://extraimago.com/image/apdn][img]http://extraimago.com/images/2016/06/15/vlcsnap-2016-06-14-18h00m38s757.th.png[/img][/url] [url=http://extraimago.com/image/apd1][img]http://extraimago.com/images/2016/06/15/vlcsnap-2016-06-14-17h59m57s722.th.png[/img][/url] [url=http://extraimago.com/image/apdE][img]http://extraimago.com/images/2016/06/15/vlcsnap-2016-06-14-18h00m55s846.th.png[/img][/url] [url=http://extraimago.com/image/apdO][img]http://extraimago.com/images/2016/06/15/vlcsnap-2016-06-14-18h01m03s588.th.png[/img][/url] [url=http://extraimago.com/image/apdS][img]http://extraimago.com/images/2016/06/15/vlcsnap-2016-06-14-18h01m24s754.th.png[/img][/url] [url=http://extraimago.com/image/apdq][img]http://extraimago.com/images/2016/06/15/vlcsnap-2016-06-14-18h01m25s645.th.png[/img][/url] [url=http://extraimago.com/image/apdy][img]http://extraimago.com/images/2016/06/15/vlcsnap-2016-06-14-18h01m51s830.th.png[/img][/url] [url=http://extraimago.com/image/apdL][img]http://extraimago.com/images/2016/06/15/vlcsnap-2016-06-14-18h01m53s462.th.png[/img][/url] [url=http://extraimago.com/image/apdQ][img]http://extraimago.com/images/2016/06/15/vlcsnap-2016-06-14-18h01m57s577.th.png[/img][/url] [url=http://extraimago.com/image/apdR][img]http://extraimago.com/images/2016/06/15/vlcsnap-2016-06-14-18h02m01s803.th.png[/img][/url] [url=http://extraimago.com/image/apdm][img]http://extraimago.com/images/2016/06/15/vlcsnap-2016-06-14-18h02m07s556.th.png[/img][/url]","torrent":{"xt":"urn:btih:34b9db112aa6a436a35266359742c98a0cc37bdc","amp;dn":"Teenage+Mutant+Ninja+Turtles+Out+of+the+Shadows+%282016%29Hindi+HDTS","amp;tr":["udp%3A%2F%2Ftracker.leechers-paradise.org%3A6969","udp%3A%2F%2Fzer0day.ch%3A1337","udp%3A%2F%2Fopen.demonii.com%3A1337","udp%3A%2F%2Ftracker.coppersurfer.tk%3A6969","udp%3A%2F%2Fexodus.desync.com%3A6969"],"infoHash":"34b9db112aa6a436a35266359742c98a0cc37bdc","infoHashBuffer":{"type":"Buffer","data":[52,185,219,17,42,166,164,54,163,82,102,53,151,66,201,138,12,195,123,220]},"announce":[],"urlList":[]}}